<svg width="23" height="22" viewBox="0 0 23 22" fill="none" xmlns="http://www.w3.org/2000/svg">
<path fill-rule="evenodd" clip-rule="evenodd" d="M17.2184 8.54918C19.6022 8.92935 21.4711 10.9672 21.7378 13.5148C21.7594 13.7212 21.7705 13.9309 21.7705 14.1436C21.7705 14.356 21.7594 14.5658 21.7378 14.7722C21.4416 17.6012 19.1697 19.8015 16.411 19.8015H16.2941L16.2948 19.8003C17.2803 17.9983 18.266 16.196 19.2515 14.3939C19.3386 14.2347 19.3386 14.0523 19.2515 13.8931L16.7367 9.29475C16.6434 9.12402 16.6504 8.92494 16.7556 8.76215C16.8608 8.59936 17.0337 8.51973 17.2183 8.54918H17.2184ZM2.78313 13.5148C3.10762 13.756 3.45363 13.9668 3.81761 14.1434C4.46513 14.4577 5.1698 14.6638 5.9105 14.7396C6.07588 14.7566 6.21044 14.8529 6.2865 15.0089C6.36255 15.1649 6.35858 15.3365 6.27553 15.4884L3.91665 19.8016L3.6398 20.308C3.55278 20.4672 3.55278 20.6495 3.6398 20.8088C3.72693 20.9681 3.87643 21.0592 4.05069 21.0592C8.16668 21.0592 12.2827 21.0592 16.3987 21.0592H16.4111C17.8134 21.0592 19.1128 20.5939 20.1782 19.8017C21.7093 18.6636 22.7575 16.8506 22.9348 14.7725C22.9526 14.5653 22.9616 14.3557 22.9616 14.1438C22.9616 13.9318 22.9526 13.7221 22.9348 13.515C22.7574 11.4368 21.7091 9.62374 20.1782 8.48565C19.8539 8.24444 19.5078 8.03368 19.1438 7.8571C18.4961 7.54277 17.7916 7.33664 17.0508 7.26087C16.8855 7.24388 16.7508 7.1476 16.6748 6.99154C16.5988 6.83569 16.6028 6.66397 16.6858 6.5121L19.0447 2.19895L19.3216 1.6926C19.4086 1.53334 19.4086 1.35114 19.3216 1.19177C19.2344 1.03251 19.0849 0.941406 18.9107 0.941406H18.3569H14.2312H12.8558H8.7301H6.56272H6.55039C5.14817 0.941406 3.84875 1.40672 2.78324 2.19895C1.25231 3.33704 0.204034 5.15012 0.0267448 7.22822C0.00898456 7.43524 0 7.6449 0 7.85688C0 8.06886 0.00898456 8.27852 0.0267448 8.48565C0.204138 10.5639 1.25241 12.3769 2.78324 13.515L2.78313 13.5148ZM14.645 19.8015H11.6147C11.4405 19.8015 11.291 19.7104 11.2039 19.5512C11.1168 19.3919 11.1168 19.2097 11.2038 19.0504C12.0527 17.4983 12.9018 15.946 13.7504 14.3937C13.8374 14.2345 13.8374 14.0523 13.7504 13.8931C12.6957 11.9646 11.6408 10.0359 10.5861 8.10713C10.499 7.94798 10.499 7.76556 10.5861 7.6063C11.5262 5.88719 12.4664 4.1682 13.4067 2.44909C13.4938 2.28983 13.6432 2.19872 13.8174 2.19872H16.8478C17.0219 2.19872 17.1714 2.28994 17.2587 2.44909C17.3457 2.60835 17.3457 2.79055 17.2586 2.94981L14.8042 7.43755L14.712 7.60641C14.6249 7.76556 14.625 7.94776 14.7121 8.10691C15.7667 10.0355 16.8216 11.9643 17.8762 13.8931C17.9632 14.0523 17.9632 14.2346 17.8762 14.3937L15.0558 19.5511C14.9686 19.7103 14.8191 19.8014 14.645 19.8014V19.8015ZM9.14391 19.8015H6.11349C5.93934 19.8015 5.78984 19.7104 5.70271 19.5512C5.61558 19.3919 5.61568 19.2097 5.70271 19.0504L8.04236 14.7721L8.15707 14.5626L8.24932 14.3937C8.33634 14.2345 8.33634 14.0523 8.24932 13.8932C7.26362 12.0906 6.27762 10.288 5.29192 8.48554L5.08507 8.10713C4.99804 7.94787 4.99804 7.76567 5.08507 7.60652L5.29192 7.22822L7.9055 2.4492C7.99263 2.28994 8.14213 2.19884 8.31628 2.19884H10.3175H11.3466C11.5208 2.19884 11.6702 2.28994 11.7575 2.4492C11.8445 2.60835 11.8445 2.79066 11.7575 2.94992C10.9086 4.50205 10.0597 6.05428 9.21088 7.60641C9.12385 7.76567 9.12385 7.94787 9.21088 8.10702C10.2657 10.0359 11.3206 11.9649 12.3754 13.8938C12.4624 14.0528 12.4625 14.2349 12.3756 14.3941C11.8687 15.3227 10.0945 18.5644 9.55459 19.5514C9.46746 19.7105 9.31796 19.8016 9.14391 19.8016V19.8015ZM5.74282 13.451C3.35919 13.0708 1.49029 11.0329 1.22358 8.48543C1.20195 8.27907 1.19088 8.06919 1.19088 7.85666C1.19088 7.64424 1.20195 7.43446 1.22358 7.228C1.49029 4.6805 3.35909 2.64265 5.74282 2.26247C5.92743 2.23303 6.10033 2.31266 6.20543 2.47545C6.31063 2.63824 6.31763 2.83742 6.22434 3.00804L4.26026 6.59923L3.91644 7.228L3.69873 7.62626C3.65527 7.68461 3.65809 8.01449 3.67898 8.05132L3.91644 8.48543L6.22434 12.7054C6.31763 12.8761 6.31052 13.0753 6.20543 13.238C6.10022 13.4008 5.92722 13.4804 5.74262 13.451H5.74282Z" fill="#EAB221"/>
</svg>
