<svg width="86" height="100" viewBox="0 0 86 100" fill="none" xmlns="http://www.w3.org/2000/svg">
<path d="M56.7038 60.631C56.0923 60.431 52.2269 58.6887 54.6423 51.3464H54.6077C60.9039 44.8618 65.7154 34.4271 65.7154 24.1541C65.7154 8.35792 55.2115 0.0771484 43.0039 0.0771484C30.7885 0.0771484 20.3423 8.35407 20.3423 24.1541C20.3423 34.4695 25.1269 44.9464 31.4615 51.4156C33.9308 57.8925 29.5154 60.2964 28.5923 60.631C15.8077 65.2579 0.807693 73.6848 0.807693 82.0041V85.1233C0.807693 96.4579 22.7846 99.0348 43.1231 99.0348C63.4923 99.0348 85.1923 96.4579 85.1923 85.1233V82.0041C85.1923 73.4348 70.1192 65.0733 56.7038 60.631ZM35.4885 94.1272C35.4885 84.3233 41.7308 71.0887 41.7308 71.0887L37.4115 67.7002C37.4115 64.4618 43 61.0733 43 61.0733C43 61.0733 48.5731 64.5156 48.5731 67.7002L44.2692 71.0887C44.2692 71.0887 50.5115 84.2733 50.5115 94.2348C50.5115 95.7964 35.4885 95.4348 35.4885 94.1272Z" fill="#EAB221"/>
</svg>
