<svg width="16" height="17" viewBox="0 0 16 17" fill="none" xmlns="http://www.w3.org/2000/svg">
<path d="M7.78241 0C4.53438 0 3.58446 0.00359005 3.39981 0.0200017C2.73327 0.0793657 2.3185 0.191811 1.86663 0.432857C1.5184 0.618129 1.24376 0.832891 0.972713 1.13394C0.479083 1.68296 0.179914 2.3584 0.0716145 3.16129C0.0189607 3.55107 0.00364322 3.63056 0.000531857 5.6215C-0.000664821 6.28515 0.000531857 7.15855 0.000531857 8.33006C0.000531857 11.8073 0.00412189 12.824 0.0196787 13.0215C0.0735292 13.7164 0.175247 14.1536 0.390649 14.6319C0.802306 15.5473 1.58852 16.2346 2.51475 16.491C2.83546 16.5795 3.18968 16.6282 3.64442 16.6513C3.83708 16.6603 5.80083 16.6667 7.76577 16.6667C9.73072 16.6667 11.6957 16.6641 11.8835 16.6538C12.4101 16.6273 12.7158 16.5833 13.0539 16.4897C13.5132 16.3635 13.9412 16.1315 14.308 15.8097C14.6749 15.4879 14.9718 15.0842 15.178 14.6267C15.3892 14.16 15.4963 13.7062 15.5448 13.0475C15.5553 12.9039 15.5597 10.6144 15.5597 8.32788C15.5597 6.04102 15.5549 3.7557 15.5444 3.6121C15.4954 2.94281 15.3883 2.49277 15.1702 2.01709C14.9913 1.6277 14.7927 1.33691 14.5043 1.03957C13.9897 0.512864 13.3602 0.192324 12.61 0.0764167C12.2466 0.0201299 12.1742 0.00346183 10.3146 0H7.78241Z" fill="url(#paint0_radial)"/>
<path d="M7.78241 0C4.53438 0 3.58446 0.00359005 3.39981 0.0200017C2.73327 0.0793657 2.3185 0.191811 1.86663 0.432857C1.5184 0.618129 1.24376 0.832891 0.972713 1.13394C0.479083 1.68296 0.179914 2.3584 0.0716145 3.16129C0.0189607 3.55107 0.00364322 3.63056 0.000531857 5.6215C-0.000664821 6.28515 0.000531857 7.15855 0.000531857 8.33006C0.000531857 11.8073 0.00412189 12.824 0.0196787 13.0215C0.0735292 13.7164 0.175247 14.1536 0.390649 14.6319C0.802306 15.5473 1.58852 16.2346 2.51475 16.491C2.83546 16.5795 3.18968 16.6282 3.64442 16.6513C3.83708 16.6603 5.80083 16.6667 7.76577 16.6667C9.73072 16.6667 11.6957 16.6641 11.8835 16.6538C12.4101 16.6273 12.7158 16.5833 13.0539 16.4897C13.5132 16.3635 13.9412 16.1315 14.308 15.8097C14.6749 15.4879 14.9718 15.0842 15.178 14.6267C15.3892 14.16 15.4963 13.7062 15.5448 13.0475C15.5553 12.9039 15.5597 10.6144 15.5597 8.32788C15.5597 6.04102 15.5549 3.7557 15.5444 3.6121C15.4954 2.94281 15.3883 2.49277 15.1702 2.01709C14.9913 1.6277 14.7927 1.33691 14.5043 1.03957C13.9897 0.512864 13.3602 0.192324 12.61 0.0764167C12.2466 0.0201299 12.1742 0.00346183 10.3146 0H7.78241Z" fill="url(#paint1_radial)"/>
<path d="M7.77901 2.17969C6.21901 2.17969 6.02323 2.187 5.41052 2.21687C4.79902 2.24687 4.38161 2.3506 4.01638 2.50279C3.63859 2.65998 3.31811 2.87026 2.99884 3.21247C2.67932 3.55455 2.48306 3.89791 2.33587 4.30256C2.19347 4.694 2.09653 5.14135 2.06901 5.79628C2.04173 6.45274 2.03455 6.66263 2.03455 8.33405C2.03455 10.0055 2.04149 10.2146 2.06925 10.8711C2.09737 11.5262 2.19418 11.9735 2.33611 12.3648C2.48295 12.7696 2.6792 13.1129 2.9986 13.455C3.31776 13.7973 3.63823 14.0081 4.01578 14.1653C4.38125 14.3175 4.79878 14.4212 5.41017 14.4512C6.02287 14.4811 6.21853 14.4884 7.77841 14.4884C9.33854 14.4884 9.53372 14.4811 10.1464 14.4512C10.7579 14.4212 11.1758 14.3175 11.5413 14.1653C11.919 14.0081 12.239 13.7973 12.5581 13.455C12.8776 13.1129 13.0739 12.7696 13.2211 12.3649C13.3623 11.9735 13.4592 11.5261 13.4879 10.8712C13.5155 10.2147 13.5226 10.0055 13.5226 8.33405C13.5226 6.66263 13.5155 6.45287 13.4879 5.7964C13.4592 5.14122 13.3623 4.694 13.2211 4.30269C13.0739 3.89791 12.8776 3.55455 12.5581 3.21247C12.2386 2.87013 11.9191 2.65986 11.5409 2.50279C11.1747 2.3506 10.7571 2.24687 10.1456 2.21687C9.53288 2.187 9.33782 2.17969 7.77734 2.17969H7.77901ZM7.26372 3.28876C7.41665 3.2885 7.5873 3.28876 7.77901 3.28876C9.31269 3.28876 9.49447 3.29465 10.1001 3.32414C10.6602 3.35158 10.9641 3.45185 11.1666 3.53608C11.4347 3.64763 11.6258 3.78098 11.8267 3.99638C12.0277 4.21178 12.1522 4.41693 12.2565 4.70413C12.3352 4.92082 12.4289 5.24649 12.4544 5.84654C12.4819 6.49531 12.4879 6.6902 12.4879 8.33264C12.4879 9.97509 12.4819 10.17 12.4544 10.8188C12.4287 11.4188 12.3352 11.7445 12.2565 11.9612C12.1524 12.2484 12.0277 12.4529 11.8267 12.6681C11.6256 12.8835 11.4348 13.0169 11.1666 13.1284C10.9644 13.2131 10.6602 13.3131 10.1001 13.3405C9.49458 13.37 9.31269 13.3764 7.77901 13.3764C6.24522 13.3764 6.06344 13.37 5.45791 13.3405C4.89786 13.3128 4.5939 13.2125 4.3913 13.1283C4.12325 13.0168 3.93178 12.8834 3.73073 12.668C3.52969 12.4526 3.40523 12.248 3.30088 11.9606C3.22226 11.744 3.12856 11.4183 3.10307 10.8182C3.07555 10.1695 3.07004 9.97458 3.07004 8.33111C3.07004 6.68763 3.07555 6.49377 3.10307 5.845C3.12868 5.24495 3.22226 4.91928 3.30088 4.70234C3.40499 4.41513 3.52969 4.20999 3.73073 3.99458C3.93178 3.77918 4.12325 3.64584 4.3913 3.53403C4.59378 3.44941 4.89786 3.3494 5.45791 3.32184C5.98781 3.29619 6.19316 3.2885 7.26372 3.28722V3.28876ZM10.8452 4.31064C10.7088 4.31064 10.5756 4.35396 10.4622 4.43512C10.3488 4.51628 10.2605 4.63164 10.2083 4.7666C10.1562 4.90156 10.1425 5.05007 10.1691 5.19333C10.1958 5.3366 10.2614 5.46819 10.3578 5.57147C10.4543 5.67474 10.5771 5.74506 10.7108 5.77353C10.8446 5.80199 10.9832 5.78733 11.1091 5.7314C11.2351 5.67546 11.3427 5.58076 11.4184 5.45928C11.4941 5.33779 11.5345 5.19498 11.5345 5.0489C11.5345 4.64118 11.2257 4.31038 10.8452 4.31038V4.31064ZM7.77901 5.17353C6.14996 5.17353 4.82917 6.58865 4.82917 8.33405C4.82917 10.0795 6.14996 11.4939 7.77901 11.4939C9.40806 11.4939 10.7285 10.0795 10.7285 8.33405C10.7285 6.58865 9.40794 5.17353 7.77889 5.17353H7.77901ZM7.77901 6.2826C8.83641 6.2826 9.69371 7.20101 9.69371 8.33405C9.69371 9.46697 8.83641 10.3855 7.77901 10.3855C6.7215 10.3855 5.86431 9.46697 5.86431 8.33405C5.86431 7.20101 6.7215 6.2826 7.77901 6.2826V6.2826Z" fill="white"/>
<defs>
<radialGradient id="paint0_radial" cx="0" cy="0" r="1" gradientUnits="userSpaceOnUse" gradientTransform="translate(4.13307 17.9503) rotate(-90) scale(16.5179 14.3426)">
<stop stop-color="#FFDD55"/>
<stop offset="0.1" stop-color="#FFDD55"/>
<stop offset="0.5" stop-color="#FF543E"/>
<stop offset="1" stop-color="#C837AB"/>
</radialGradient>
<radialGradient id="paint1_radial" cx="0" cy="0" r="1" gradientUnits="userSpaceOnUse" gradientTransform="translate(-2.60634 1.20064) rotate(79.4149) scale(7.36528 28.4845)">
<stop stop-color="#3771C8"/>
<stop offset="0.128" stop-color="#3771C8"/>
<stop offset="1" stop-color="#6600FF" stop-opacity="0"/>
</radialGradient>
</defs>
</svg>
