<svg width="18" height="18" viewBox="0 0 18 18" fill="none" xmlns="http://www.w3.org/2000/svg">
<path d="M14.7642 14.6232H12.1984V10.6411C12.1984 9.69159 12.1791 8.46941 10.8601 8.46941C9.52283 8.46941 9.31873 9.50283 9.31873 10.5715V14.6232H6.75196V6.435H9.21667V7.5504H9.25037C9.59504 6.90785 10.4327 6.22813 11.6843 6.22813C14.2838 6.22813 14.7652 7.92315 14.7652 10.1282V14.6232H14.7642ZM3.854 5.31483C3.65813 5.31508 3.46413 5.27705 3.28313 5.20292C3.10213 5.12878 2.93769 5.02 2.79923 4.88282C2.66078 4.74563 2.55103 4.58273 2.47627 4.40346C2.40152 4.22419 2.36324 4.03207 2.36362 3.83812C2.36381 3.54624 2.45141 3.26098 2.61533 3.01839C2.77925 2.77581 3.01214 2.58681 3.28455 2.47528C3.55695 2.36376 3.85663 2.33473 4.1457 2.39186C4.43477 2.44898 4.70024 2.58971 4.90854 2.79623C5.11684 3.00275 5.25861 3.2658 5.31593 3.5521C5.37325 3.83841 5.34354 4.13512 5.23056 4.4047C5.11758 4.67429 4.92641 4.90465 4.68121 5.06665C4.43601 5.22865 4.14781 5.31502 3.85304 5.31483H3.854ZM5.14027 14.6232H2.56677V6.435H5.14123V14.6232H5.14027ZM16.0495 0H1.27953C0.570927 0 0 0.552933 0 1.23647V15.9235C0 16.6071 0.57189 17.16 1.27857 17.16H16.0457C16.7523 17.16 17.33 16.6071 17.33 15.9235V1.23647C17.33 0.552933 16.7523 0 16.0457 0H16.0485H16.0495Z" fill="#126CFD"/>
</svg>
