<svg width="20" height="20" viewBox="0 0 20 20" fill="none" xmlns="http://www.w3.org/2000/svg">
<path d="M10 19.8022C15.5228 19.8022 20 15.3693 20 9.90108C20 4.43286 15.5228 0 10 0C4.47715 0 0 4.43286 0 9.90108C0 15.3693 4.47715 19.8022 10 19.8022Z" fill="#1DA1F2"/>
<path d="M7.76501 15.049C12.2963 15.049 14.7739 11.3913 14.7739 8.22128C14.7739 8.11677 14.7739 8.01227 14.7688 7.91274C15.249 7.57434 15.6679 7.15134 16 6.66863C15.5607 6.85773 15.0856 6.98712 14.5849 7.04684C15.0958 6.74825 15.484 6.28046 15.6679 5.71812C15.1928 5.99183 14.6667 6.19088 14.1047 6.30037C13.6552 5.83258 13.0166 5.54395 12.3065 5.54395C10.9476 5.54395 9.84419 6.61886 9.84419 7.9426C9.84419 8.1317 9.86462 8.31583 9.9106 8.49001C7.86207 8.39048 6.04853 7.435 4.83269 5.98187C4.62324 6.3352 4.50064 6.74825 4.50064 7.18618C4.50064 8.01725 4.93487 8.75376 5.59898 9.18174C5.1954 9.17178 4.81737 9.0623 4.48531 8.88315C4.48531 8.8931 4.48531 8.90305 4.48531 8.91301C4.48531 10.0775 5.33333 11.0429 6.46232 11.2669C6.25798 11.3216 6.03831 11.3515 5.81354 11.3515C5.65517 11.3515 5.50192 11.3365 5.34866 11.3067C5.66028 12.2622 6.5696 12.9539 7.64751 12.9738C6.8046 13.6158 5.74202 13.9989 4.58748 13.9989C4.38825 13.9989 4.19413 13.989 4 13.9641C5.07791 14.6509 6.37548 15.049 7.76501 15.049Z" fill="white"/>
</svg>
